<svg height="64" viewBox="0 0 64 64" width="64" xmlns="http://www.w3.org/2000/svg"><g fill="#608cee"><path d="m31.999 8.97-22.999 19.933v31.097c0 .553.448 1 1 1h14.999c.552 0 1-.447 1-1v-15h12v15c0 .553.448 1 1 1h15.001c.552 0 1-.447 1-1v-31.096zm6.001 27.03c0 .553-.448 1-1 1h-10c-.552 0-1-.447-1-1v-8c0-.553.448-1 1-1h10c.552 0 1 .447 1 1z" fill="#111"/><path d="m62.655 30.244-30-26c-.376-.326-.934-.326-1.31 0l-13.345 11.566v-7.81c0-.552-.448-1-1-1h-5c-.552 0-1 .448-1 1v13.877l-9.655 8.367c-.417.362-.462.993-.101 1.411.361.416.994.464 1.411.101l29.345-25.433 29.345 25.433c.189.164.423.244.655.244.28 0 .559-.117.756-.345.361-.418.316-1.049-.101-1.411z"/></g></svg>