<svg height="48" viewBox="0 0 48 48" width="48" xmlns="http://www.w3.org/2000/svg"><circle cx="39" cy="10" fill="#9bced3" r="5"/><circle cx="9" cy="10" fill="#9bced3" r="5"/><path clip-rule="evenodd" d="m35.9966888 17c-2.7595977 0-4.9966888 2.2295895-4.9966888 5.0038109v6.7917995c0 .5547104.4171391 1.1712494.9327698 1.3774986l2.0672302.826891.9164581 10.9975281c.0461426.5536499.536583 1.0024719 1.0805703 1.0024719h6.0059433c.5506401 0 1.0350075-.455761 1.0805702-1.0024719l.9164581-10.9975281 2.0507812-.6835899c.5242386-.1747494.9492188-.7639008.9492188-1.3149109v-6.9939594c0-2.7655907-2.241581-5.0075398-4.9966888-5.0075398z" fill="#76b5b5" fill-rule="evenodd"/><path clip-rule="evenodd" d="m5.996686 17c-2.759594 0-4.996686 2.2295895-4.996686 5.0038109v6.7917995c0 .5547104.4171371 1.1712494.9327741 1.3774986l2.0672259.826891.916461 10.9975281c.0461368.5536499.5365748 1.0024719 1.0805688 1.0024719h6.00594c.5506401 0 1.0350103-.455761 1.0805702-1.0024719l.91646-10.9975281 2.0507812-.6835899c.5242386-.1747494.9492188-.7639008.9492188-1.3149109v-6.9939594c0-2.7655907-2.24158-5.0075398-4.9966898-5.0075398z" fill="#76b5b5" fill-rule="evenodd"/><circle cx="24" cy="7" fill="#5a7a84" r="6"/><path clip-rule="evenodd" d="m20.0006599 15c-3.3140697 0-6.0006599 2.6780396-6.0006599 6.0033302v8.9958c0 .5527592.39816 1.1999512.8877296 1.4447289l3.1122704 1.5561409 1.0039997 13.0830002c.0430012.519001.4750004.9169998.9960003.9169998h8c.5209999 0 .9529991-.3979988.9960003-.9169998l.941-13.2870026 3.1410408-1.3884583c.5091896-.2250785.9219589-.852169.9219589-1.4084091v-8.9958c0-3.3155498-2.6765404-6.0033302-6.0006599-6.0033302z" fill="#335262" fill-rule="evenodd"/></svg>